HIERARCHY
ROOT Hips
{
    OFFSET 0.000000 0.000000 0.000000
    CHANNELS 6 Xposition Yposition Zposition Zrotation Xrotation Yrotation
    JOINT Spine
    {
        OFFSET -0.000000 14.517291 0.000000
        CHANNELS 3 Zrotation Xrotation Yrotation
        JOINT Spine1
        {
            OFFSET -0.000000 37.558300 0.000000
            CHANNELS 3 Zrotation Xrotation Yrotation
            JOINT Neck
            {
                OFFSET -0.000000 37.404057 3.400369
                CHANNELS 3 Zrotation Xrotation Yrotation
                JOINT Head
                {
                    OFFSET -0.000000 24.785618 -3.540803
                    CHANNELS 3 Zrotation Xrotation Yrotation
                    End Site
                    {
                        OFFSET -0.000000 35.408028 0.000000
                    }
                }
            }
            JOINT LeftShoulder
            {
                OFFSET 6.992933 33.973492 -0.192664
                CHANNELS 3 Zrotation Xrotation Yrotation
                JOINT LeftArm
                {
                    OFFSET 21.527611 0.000000 0.000000
                    CHANNELS 3 Zrotation Xrotation Yrotation
                    JOINT LeftForeArm
                    {
                        OFFSET 56.353916 0.000000 0.000000
                        CHANNELS 3 Zrotation Xrotation Yrotation
                        JOINT LeftHand
                        {
                            OFFSET 47.774071 0.000000 0.000000
                            CHANNELS 3 Zrotation Xrotation Yrotation
                            End Site
                            {
                                OFFSET 26.556021 0.000000 0.000000
                            }
                        }
                    }
                }
            }
            JOINT RightShoulder
            {
                OFFSET -7.065357 33.973492 -0.192664
                CHANNELS 3 Zrotation Xrotation Yrotation
                JOINT RightArm
                {
                    OFFSET -21.527611 0.000000 0.000000
                    CHANNELS 3 Zrotation Xrotation Yrotation
                    JOINT RightForeArm
                    {
                        OFFSET -56.353916 0.000000 0.000000
                        CHANNELS 3 Zrotation Xrotation Yrotation
                        JOINT RightHand
                        {
                            OFFSET -47.774071 0.000000 0.000000
                            CHANNELS 3 Zrotation Xrotation Yrotation
                            End Site
                            {
                                OFFSET -26.556021 0.000000 0.000000
                            }
                        }
                    }
                }
            }
        }
    }
    JOINT LeftUpLeg
    {
        OFFSET 17.704014 0.000000 0.000000
        CHANNELS 3 Zrotation Xrotation Yrotation
        JOINT LeftLeg
        {
            OFFSET -0.000000 -81.181816 0.000000
            CHANNELS 3 Zrotation Xrotation Yrotation
            JOINT LeftFoot
            {
                OFFSET -0.000000 -62.821102 0.000000
                CHANNELS 3 Zrotation Xrotation Yrotation
                JOINT LeftToeBase
                {
                    OFFSET -0.000000 -11.507608 26.556021
                    CHANNELS 3 Zrotation Xrotation Yrotation
                    End Site
                    {
                        OFFSET -0.000000 0.000000 7.081605
                    }
                }
            }
        }
    }
    JOINT RightUpLeg
    {
        OFFSET -17.704014 0.000000 0.000000
        CHANNELS 3 Zrotation Xrotation Yrotation
        JOINT RightLeg
        {
            OFFSET -0.000000 -81.181816 0.000000
            CHANNELS 3 Zrotation Xrotation Yrotation
            JOINT RightFoot
            {
                OFFSET -0.000000 -62.821102 0.000000
                CHANNELS 3 Zrotation Xrotation Yrotation
                JOINT RightToeBase
                {
                    OFFSET -0.000000 -11.507608 26.556021
                    CHANNELS 3 Zrotation Xrotation Yrotation
                    End Site
                    {
                        OFFSET -0.000000 0.000000 7.081605
                    }
                }
            }
        }
    }
}
MOTION
Frames:    11
Frame Time:    0.008333
59.109570    149.128128    -8.432536    5.498459    3.012504    -52.487408    0.530879    -0.706225    1.663480    1.663160    1.346435    0.533883    15.927770    -0.989964    14.591670    -10.425726    4.980397    11.652064    12.457714    -1.816827    -17.862053    -10.836020    -21.456268    -44.717258    9.189373    -39.266647    -24.839773    -23.136328    -29.566204    -45.077045    -8.621667    2.079236    -0.433649    35.346771    3.896073    77.491638    7.743255    -1.219216    105.542725    3.166740    -10.822547    20.233114    10.443183    -37.298004    5.167761    -30.434149    40.447395    7.331028    13.089807    -9.652608    42.238686    0.000000    0.000000    0.000000    -0.299250    4.352882    -0.799028    5.895463    33.881741    -0.726652    -6.641243    -37.517609    -17.581755    0.000000    0.000000    0.000000    
59.377171    149.158401    -8.664691    5.411036    3.051828    -52.550629    0.627321    -0.682489    1.654382    1.676015    1.382960    0.530018    15.929116    -0.966216    14.632374    -10.478952    5.024607    11.696698    12.429968    -1.767572    -17.819790    -10.876010    -21.495419    -44.715736    9.122340    -39.229710    -24.907154    -23.127975    -29.538195    -45.066036    -8.617055    2.106018    -0.445490    35.323154    3.986334    77.520859    7.640290    -1.240954    105.575966    3.119287    -10.724305    20.209000    10.557987    -37.309105    5.290142    -30.286598    40.329704    7.347437    12.998240    -9.497154    42.101612    0.000000    0.000000    0.000000    -0.281549    4.053130    -0.440196    6.249701    34.303097    -0.616252    -6.928386    -37.512138    -18.201340    0.000000    0.000000    0.000000    
59.633827    149.200073    -8.899929    5.354352    3.085793    -52.626747    0.695233    -0.648595    1.644719    1.704420    1.379910    0.526047    15.835336    -0.996235    14.659123    -10.396611    5.109164    11.751205    12.373926    -1.777144    -17.775965    -10.853497    -21.404543    -44.655319    9.140805    -39.046013    -24.926775    -22.926401    -29.437746    -44.901138    -8.661569    2.127375    -0.432125    35.387508    4.043217    77.526184    7.646702    -1.168218    105.612442    3.088403    -10.672523    20.234558    10.677773    -37.325649    5.424427    -30.165098    40.191074    7.342104    12.908173    -9.310115    41.992477    0.000000    0.000000    0.000000    -0.293129    3.765944    -0.206445    6.566602    34.645615    -0.660478    -7.181497    -37.451248    -18.496904    0.000000    0.000000    0.000000    
59.886700    149.241013    -9.106237    5.320444    3.095098    -52.711582    0.732125    -0.647660    1.657721    1.689374    1.399816    0.530218    15.885831    -0.988756    14.694649    -10.433484    5.186653    11.784815    12.389059    -1.763020    -17.759491    -10.820769    -21.316317    -44.606556    9.131152    -39.052444    -24.916868    -22.999966    -29.405474    -44.969391    -8.627897    2.139476    -0.455763    35.286995    4.128496    77.488106    7.564060    -1.238024    105.706413    3.133815    -10.642743    20.197062    10.760163    -37.322575    5.621124    -29.998289    40.060593    7.251702    12.829439    -9.134337    41.896729    0.000000    0.000000    0.000000    -0.351907    3.524061    -0.155302    6.789900    34.919300    -0.698799    -7.342799    -37.423161    -18.570684    0.000000    0.000000    0.000000    
60.119511    149.285706    -9.297417    5.281622    3.085106    -52.769634    0.753154    -0.613628    1.641347    1.680607    1.366674    0.525401    15.893514    -0.984442    14.707517    -10.407413    5.300661    11.810551    12.366315    -1.733166    -17.758549    -10.721231    -21.196587    -44.533401    9.156595    -39.042534    -24.857121    -23.072485    -29.365776    -44.972214    -8.613162    2.147353    -0.420667    35.278992    4.180326    77.427139    7.582637    -1.210940    105.756737    3.097395    -10.655226    20.222197    10.826284    -37.286301    5.781281    -29.869068    39.890549    7.154810    12.766255    -8.939273    41.817722    0.000000    0.000000    0.000000    -0.413638    3.353489    -0.344454    6.850981    35.111904    -0.718778    -7.445124    -37.360497    -18.348274    0.000000    0.000000    0.000000    
60.333790    149.324921    -9.467371    5.237773    3.039644    -52.845215    0.740982    -0.597281    1.640149    1.679706    1.393043    0.524751    15.895535    -0.991603    14.724921    -10.362915    5.385497    11.839323    12.387712    -1.704290    -17.750786    -10.654057    -21.117455    -44.464458    9.124203    -39.009018    -24.820959    -23.105293    -29.324482    -44.973190    -8.583707    2.152036    -0.446288    35.196281    4.233909    77.422417    7.568589    -1.236964    105.810242    3.101966    -10.672783    20.169664    10.883154    -37.208096    5.966831    -29.750429    39.727505    7.038332    12.698614    -8.768571    41.750252    0.000000    0.000000    0.000000    -0.495201    3.253179    -0.683885    6.770405    35.249149    -0.863729    -7.180209    -37.434757    -17.708967    0.000000    0.000000    0.000000    
60.538418    149.363617    -9.623707    5.199640    2.984508    -52.892361    0.713611    -0.544198    1.618134    1.678109    1.341442    0.518229    15.962039    -0.902955    14.735816    -10.440412    5.430184    11.849527    12.397803    -1.669323    -17.778479    -10.575869    -21.025661    -44.382259    9.100439    -38.956268    -24.747410    -23.065756    -29.284746    -44.999134    -8.563070    2.174591    -0.406465    35.223717    4.212285    77.362305    7.614301    -1.122297    105.807114    3.158951    -10.608402    20.218254    10.900888    -37.123535    6.217371    -29.547659    39.611343    6.807572    12.626160    -8.617073    41.669991    0.000000    0.000000    0.000000    -0.584200    3.181918    -1.081712    6.646067    35.356873    -0.886046    -6.977412    -37.495766    -17.162983    0.000000    0.000000    0.000000    
60.723774    149.402817    -9.774111    5.154225    2.928092    -52.930016    0.689151    -0.474929    1.611454    1.671498    1.277478    0.517264    15.989283    -0.870069    14.737322    -10.433876    5.494365    11.857920    12.396893    -1.679718    -17.832291    -10.468230    -20.881313    -44.287605    9.100027    -38.939274    -24.654146    -23.055140    -29.270847    -45.026516    -8.531372    2.212215    -0.471462    35.197247    4.218308    77.371078    7.669213    -1.058328    105.826065    3.128988    -10.625946    20.240877    10.928209    -37.032307    6.390735    -29.422220    39.460323    6.678594    12.565830    -8.453198    41.589558    0.000000    0.000000    0.000000    -0.666374    3.133938    -1.529531    6.478315    35.454212    -0.762938    -6.816915    -37.554008    -16.711166    0.000000    0.000000    0.000000    
60.902096    149.439285    -9.924713    5.104902    2.883075    -52.974770    0.664422    -0.434899    1.593687    1.685315    1.247573    0.511827    16.023102    -0.807586    14.743837    -10.475144    5.520743    11.866891    12.411078    -1.606477    -17.888994    -10.364508    -20.878347    -44.204678    9.084841    -38.879940    -24.521835    -23.049938    -29.210249    -45.067146    -8.509124    2.207529    -0.463062    35.177349    4.197712    77.326134    7.680143    -0.992937    105.830276    3.140293    -10.574759    20.245953    10.989871    -36.938950    6.593716    -29.211168    39.249771    6.479631    12.398883    -8.238996    41.431519    0.000000    0.000000    0.000000    -0.729660    3.075706    -1.955698    6.295591    35.560566    -0.623072    -6.629826    -37.604046    -16.264954    0.000000    0.000000    0.000000    
61.076416    149.479889    -10.071523    5.063872    2.850469    -52.997673    0.659822    -0.394513    1.547806    1.665747    1.230843    0.496960    16.085701    -0.742793    14.753276    -10.553885    5.494286    11.866410    12.433499    -1.646846    -17.906595    -10.271127    -20.755774    -44.111889    9.101672    -38.867798    -24.418430    -23.038589    -29.200321    -45.090675    -8.511798    2.167737    -0.460908    35.133404    4.224474    77.291679    7.640987    -1.051086    105.822433    3.229199    -10.562059    20.288370    11.038225    -36.865414    6.768807    -29.110167    39.104610    6.366533    12.333570    -8.091551    41.344742    0.000000    0.000000    0.000000    -0.781036    3.003279    -2.235021    6.212112    35.663074    -0.534131    -6.531930    -37.622993    -15.996018    0.000000    0.000000    0.000000    
61.240570    149.525604    -10.209574    5.023644    2.828625    -53.033157    0.652516    -0.341707    1.535795    1.672046    1.162798    0.493948    16.051996    -0.749007    14.744611    -10.474816    5.537435    11.873100    12.444866    -1.632047    -17.935421    -10.216165    -20.692026    -44.080711    9.107890    -38.848835    -24.318253    -22.991182    -29.209650    -45.059723    -8.518345    2.173280    -0.503269    35.123943    4.210550    77.285217    7.667490    -1.029294    105.832153    3.159786    -10.589859    20.284264    11.100289    -36.792622    6.949942    -29.002148    38.964157    6.256242    12.245214    -7.961438    41.245228    0.000000    0.000000    0.000000    -0.827395    2.928174    -2.383327    6.213840    35.749542    -0.453029    -6.525824    -37.605591    -15.877757    0.000000    0.000000    0.000000    
